<svg xmlns="http://www.w3.org/2000/svg" width="336" height="258" viewBox="0 0 336 258" role="img" aria-labelledby="title desc">
  <title id="title">2024 Shopify App Store spotlight screenshot featuring autoBlogger</title>
  <desc id="desc">An illustrated recreation of a Shopify App Store screen showing autoBlogger featured under In the spotlight.</desc>
  <rect width="336" height="258" fill="#ffffff" />
  <rect y="66" width="336" height="1" fill="#d1d5db" />

  <g transform="translate(18 16)" fill="#111827">
    <path d="M7 11c0-5 4-9 9-9h11c6 0 10 4 10 10v23c0 5-4 9-9 9H11c-6 0-10-4-10-10V17l7-6z" />
    <path d="M16 10c0-6 4-10 10-10 2 0 4 .3 5.7.9l-2 5.9c-1.1-.4-2.3-.6-3.6-.6-2.8 0-4.7 1.5-4.7 3.8v3.2h-5.4V10z" fill="#ffffff" opacity=".12" />
    <path d="M20 20c0-5 3-8 8-8 2 0 4.1.5 6.1 1.6l-1.7 4.6c-1.2-.6-2.4-.9-3.7-.9-2.1 0-3.3.9-3.3 2.5 0 1.4 1 2.2 3.7 3.2 3.6 1.3 5.3 3.2 5.3 6.4 0 4.8-3.5 8-9.2 8-2.7 0-5.6-.8-7.6-2.2l1.8-4.7c1.8 1.2 3.9 1.8 5.9 1.8 2.2 0 3.6-.9 3.6-2.4 0-1.4-.9-2.1-3.5-3.1-3.7-1.3-5.5-3.5-5.5-6.8z" fill="#ffffff" />
  </g>

  <text x="54" y="41" fill="#111827" font-family="Segoe UI, Arial, sans-serif" font-size="19" font-style="italic">app store</text>

  <text x="20" y="118" fill="#111827" font-family="Segoe UI, Arial, sans-serif" font-size="22" font-weight="700">In the spotlight</text>

  <g transform="translate(19 147)">
    <rect width="43" height="43" rx="8" fill="#edf4ef" stroke="#d9e4dc" />
    <rect x="9" y="11" width="24" height="18" rx="6" fill="#fbfbfb" stroke="#1f2937" stroke-width="1.6" />
    <circle cx="16" cy="20" r="2" fill="#1f2937" />
    <circle cx="26" cy="20" r="2" fill="#1f2937" />
    <path d="M15 25c3 2 7 2 10 0" fill="none" stroke="#1f2937" stroke-width="1.6" stroke-linecap="round" />
    <path d="M15 11V6M28 11V6" stroke="#1f2937" stroke-width="1.6" stroke-linecap="round" />
    <circle cx="15" cy="5" r="2" fill="#1f2937" />
    <circle cx="28" cy="5" r="2" fill="#1f2937" />
  </g>

  <text x="74" y="161" fill="#111827" font-family="Segoe UI, Arial, sans-serif" font-size="11.8" font-weight="600">autoBlogger | AI Blog Creator</text>
  <text x="74" y="178" fill="#6b7280" font-family="Segoe UI, Arial, sans-serif" font-size="11.1">4.8 <tspan fill="#16a34a">&#9733;</tspan> (13) &#8226; 14-day free trial</text>
  <text x="74" y="194" fill="#6b7280" font-family="Segoe UI, Arial, sans-serif" font-size="11.1">Fully automated blogs | Set and forget | Up to 7...</text>

  <g transform="translate(74 206)">
    <rect width="104" height="20" rx="10" fill="#e8f2ff" />
    <path d="M10 10l4-4 4 4-4 4z" fill="#0ea5e9" />
    <text x="24" y="13.7" fill="#0f4c81" font-family="Segoe UI, Arial, sans-serif" font-size="10.6" font-weight="600">Built for Shopify</text>
  </g>
</svg>
