<svg xmlns="http://www.w3.org/2000/svg" width="513" height="409" viewBox="0 0 513 409" role="img" aria-labelledby="title desc">
  <title id="title">2026 Shopify App Store spotlight screenshot featuring autoBlogger</title>
  <desc id="desc">An illustrated recreation of a Shopify App Store mobile screen showing autoBlogger featured in the spotlight.</desc>
  <rect width="513" height="409" fill="#ffffff" />
  <rect y="90" width="513" height="1" fill="#d1d5db" />

  <g transform="translate(20 18)">
    <path d="M10 14c0-7 5-12 12-12h15c7 0 12 5 12 12v32c0 7-5 12-12 12H15C8 58 3 53 3 46V24l7-10z" fill="#111827" />
    <path d="M24 17c0-8 5-13 13-13 3 0 5.5.5 7.8 1.3l-2.4 7.4c-1.5-.5-3.1-.8-4.9-.8-3.6 0-5.8 1.8-5.8 4.8v4.2h-7.7V17z" fill="#ffffff" opacity=".12" />
    <path d="M30 31c0-5.8 3.6-9.6 9.4-9.6 2.7 0 5.1.6 7.7 2l-2 5.8c-1.5-.8-3-1.2-4.6-1.2-2.6 0-4.1 1.2-4.1 3.2 0 1.8 1.2 2.8 4.6 4 4.5 1.6 6.7 4 6.7 8 0 5.9-4.3 9.9-11.4 9.9-3.4 0-6.9-1.1-9.5-2.8l2.2-5.8c2.3 1.5 4.9 2.3 7.4 2.3 2.8 0 4.5-1.1 4.5-3.1 0-1.7-1.1-2.6-4.3-3.8-4.7-1.7-6.9-4.3-6.9-8.9z" fill="#ffffff" />
  </g>

  <text x="67" y="48" fill="#111827" font-family="Segoe UI, Arial, sans-serif" font-size="17" font-weight="600">Shopify App Store</text>

  <g transform="translate(409 27)" stroke="#111827" stroke-width="4" fill="none" stroke-linecap="round">
    <circle cx="13" cy="13" r="10" />
    <path d="M22 22l9 9" />
  </g>

  <g transform="translate(463 31)" stroke="#111827" stroke-width="4.5" stroke-linecap="round">
    <path d="M0 0h24" />
    <path d="M0 12h24" />
    <path d="M0 24h24" />
  </g>

  <rect x="19" y="124" width="474" height="257" rx="14" fill="#ffffff" stroke="#d1d5db" stroke-width="2" />

  <text x="45" y="169" fill="#111827" font-family="Segoe UI, Arial, sans-serif" font-size="17" font-weight="700">In the spotlight</text>
  <text x="45" y="222" fill="#111827" font-family="Segoe UI, Arial, sans-serif" font-size="28" font-weight="700">Set-and-forget AI blogging, fully</text>
  <text x="45" y="259" fill="#111827" font-family="Segoe UI, Arial, sans-serif" font-size="28" font-weight="700">automated for SEO &amp; sharing!</text>

  <g transform="translate(44 283)">
    <rect width="78" height="78" rx="14" fill="#2a6988" />
    <path d="M20 54l18-18 20-20 9 9-20 20-18 18z" fill="#ffffff" />
    <circle cx="34" cy="26" r="6.5" fill="#ffffff" />
    <circle cx="52" cy="44" r="6.5" fill="#ffffff" />
    <path d="M50 14l8-8" stroke="#ffffff" stroke-width="5" stroke-linecap="round" />
    <circle cx="60" cy="4" r="4" fill="#ffffff" />
    <path d="M57 31l12-2" stroke="#ffffff" stroke-width="5" stroke-linecap="round" />
    <circle cx="72" cy="28" r="4" fill="#ffffff" />
  </g>

  <text x="138" y="320" fill="#111827" font-family="Segoe UI, Arial, sans-serif" font-size="18" font-weight="600">autoBlogger | AI Blog Creation</text>
  <text x="138" y="347" fill="#5b5563" font-family="Segoe UI, Arial, sans-serif" font-size="16">4.9 <tspan fill="#16a34a">&#9733;</tspan> (53) &#8226; Free plan available</text>
</svg>
